<?xml version="1.0" encoding="UTF-8" standalone="no"?>
<!-- Created with Inkscape (http://www.inkscape.org/) -->

<svg
   xmlns:dc="http://purl.org/dc/elements/1.1/"
   xmlns:cc="http://creativecommons.org/ns#"
   xmlns:rdf="http://www.w3.org/1999/02/22-rdf-syntax-ns#"
   xmlns:svg="http://www.w3.org/2000/svg"
   xmlns="http://www.w3.org/2000/svg"
   xmlns:sodipodi="http://sodipodi.sourceforge.net/DTD/sodipodi-0.dtd"
   xmlns:inkscape="http://www.inkscape.org/namespaces/inkscape"
   width="56.444443mm"
   height="56.444443mm"
   viewBox="0 0 199.99999 199.99999"
   id="svg2"
   version="1.1"
   inkscape:version="0.91 r"
   sodipodi:docname="footer_v_twitter.svg">
  <defs
     id="defs4" />
  <sodipodi:namedview
     id="base"
     pagecolor="#ffffff"
     bordercolor="#666666"
     borderopacity="1.0"
     inkscape:pageopacity="0.0"
     inkscape:pageshadow="2"
     inkscape:zoom="2.8"
     inkscape:cx="7.6559704"
     inkscape:cy="96.108361"
     inkscape:document-units="px"
     inkscape:current-layer="layer1"
     showgrid="false"
     inkscape:window-width="1366"
     inkscape:window-height="712"
     inkscape:window-x="0"
     inkscape:window-y="30"
     inkscape:window-maximized="1"
     fit-margin-top="0"
     fit-margin-left="0"
     fit-margin-right="0"
     fit-margin-bottom="0" />
  <metadata
     id="metadata7">
    <rdf:RDF>
      <cc:Work
         rdf:about="">
        <dc:format>image/svg+xml</dc:format>
        <dc:type
           rdf:resource="http://purl.org/dc/dcmitype/StillImage" />
        <dc:title />
      </cc:Work>
    </rdf:RDF>
  </metadata>
  <g
     inkscape:label="Layer 1"
     inkscape:groupmode="layer"
     id="layer1"
     transform="translate(0,-852.3622)">
    <circle
       style="fill:#1f1c24;fill-opacity:1;fill-rule:evenodd;stroke:none;stroke-width:1px;stroke-linecap:butt;stroke-linejoin:miter;stroke-opacity:1"
       id="path3354"
       cx="100"
       cy="952.36218"
       r="100" />
    <path
       d="m 144.90593,947.92909 c 6.5224,-0.53805 10.9455,-3.50314 12.64869,-7.52627 -2.35348,1.44513 -9.65652,3.02057 -13.68995,1.51996 -0.19743,-0.94707 -0.41807,-1.8477 -0.63484,-2.66057 -3.07346,-11.2849 -13.59578,-20.37629 -24.62129,-19.27826 0.89161,-0.35998 1.79608,-0.69547 2.69929,-0.99611 1.21286,-0.43481 8.33397,-1.5935 7.21271,-4.10699 -0.94578,-2.21027 -9.64491,1.67093 -11.28228,2.17801 2.16122,-0.81287 5.73791,-2.21156 6.11984,-4.69667 -3.31216,0.4542 -6.5637,2.02061 -9.0759,4.29797 0.90707,-0.97675 1.59479,-2.1664 1.7406,-3.44767 -8.83589,5.64505 -13.99705,17.02541 -18.17372,28.06386 -3.2799,-3.178 -6.18693,-5.68117 -8.7946,-7.0708 -7.31594,-3.92378 -16.06281,-8.01659 -29.794062,-13.11453 -0.421924,4.54313 2.246393,10.58426 9.935225,14.60095 -1.665763,-0.22323 -4.712137,0.27483 -7.148201,0.85803 0.992232,5.20504 4.232147,9.49269 13.004818,11.56617 -4.008924,0.26451 -6.081128,1.17676 -7.958498,3.14316 1.825758,3.61927 6.281128,7.8798 14.296398,7.00499 -8.910733,3.84119 -3.63345,10.95457 3.61797,9.89266 -12.369998,12.7765 -31.872713,11.83845 -43.07113,1.15222 29.239235,39.843 92.79887,23.56335 102.27088,-14.81381 7.09529,0.0606 11.26809,-2.45802 13.85512,-5.23472 -4.08894,0.69418 -10.01393,-0.0231 -13.15707,-1.33158 z"
       id="Twitter__x28_alt_x29_"
       inkscape:connector-curvature="0"
       style="fill:#fffaf0;fill-opacity:1" />
  </g>
</svg>
