<?xml version="1.0" encoding="UTF-8" standalone="no"?>
<!-- Created with Inkscape (http://www.inkscape.org/) -->

<svg
   xmlns:dc="http://purl.org/dc/elements/1.1/"
   xmlns:cc="http://creativecommons.org/ns#"
   xmlns:rdf="http://www.w3.org/1999/02/22-rdf-syntax-ns#"
   xmlns:svg="http://www.w3.org/2000/svg"
   xmlns="http://www.w3.org/2000/svg"
   xmlns:sodipodi="http://sodipodi.sourceforge.net/DTD/sodipodi-0.dtd"
   xmlns:inkscape="http://www.inkscape.org/namespaces/inkscape"
   width="49.927139mm"
   height="56.444447mm"
   viewBox="0 0 176.90719 200.00001"
   id="svg2"
   version="1.1"
   inkscape:version="0.91 r"
   sodipodi:docname="logo.svg"
   inkscape:export-filename="/home/ricardomarques/Public/page/public/img/logo.svg.png"
   inkscape:export-xdpi="90"
   inkscape:export-ydpi="90">
  <defs
     id="defs4">
    <filter
       style="color-interpolation-filters:sRGB"
       inkscape:label="Drop Shadow"
       id="filter4473">
      <feFlood
         flood-opacity="0.498039"
         flood-color="rgb(0,0,0)"
         result="flood"
         id="feFlood4475" />
      <feComposite
         in="flood"
         in2="SourceGraphic"
         operator="in"
         result="composite1"
         id="feComposite4477" />
      <feGaussianBlur
         in="composite1"
         stdDeviation="3"
         result="blur"
         id="feGaussianBlur4479" />
      <feOffset
         dx="6"
         dy="6"
         result="offset"
         id="feOffset4481" />
      <feComposite
         in="SourceGraphic"
         in2="offset"
         operator="over"
         result="composite2"
         id="feComposite4483" />
    </filter>
    <filter
       inkscape:menu-tooltip="In and out glow with a possible offset and colorizable flood"
       inkscape:menu="Shadows and Glows"
       inkscape:label="Cutout Glow"
       style="color-interpolation-filters:sRGB"
       id="filter4752">
      <feOffset
         dy="3"
         dx="3"
         id="feOffset4754" />
      <feGaussianBlur
         stdDeviation="3"
         result="blur"
         id="feGaussianBlur4756" />
      <feFlood
         flood-color="rgb(0,0,0)"
         flood-opacity="1"
         result="flood"
         id="feFlood4758" />
      <feComposite
         in="flood"
         in2="SourceGraphic"
         operator="in"
         result="composite"
         id="feComposite4760" />
      <feBlend
         in="blur"
         in2="composite"
         mode="normal"
         id="feBlend4762" />
    </filter>
  </defs>
  <sodipodi:namedview
     id="base"
     pagecolor="#ffffff"
     bordercolor="#666666"
     borderopacity="1.0"
     inkscape:pageopacity="0.0"
     inkscape:pageshadow="2"
     inkscape:zoom="0.98994949"
     inkscape:cx="432.83695"
     inkscape:cy="198.74228"
     inkscape:document-units="px"
     inkscape:current-layer="a4148"
     showgrid="false"
     inkscape:window-width="1366"
     inkscape:window-height="712"
     inkscape:window-x="0"
     inkscape:window-y="30"
     inkscape:window-maximized="1"
     inkscape:snap-object-midpoints="true"
     fit-margin-top="0"
     fit-margin-left="0"
     fit-margin-right="0"
     fit-margin-bottom="0">
    <inkscape:grid
       type="xygrid"
       id="grid6147"
       originx="0"
       originy="2.2755904e-06" />
  </sodipodi:namedview>
  <metadata
     id="metadata7">
    <rdf:RDF>
      <cc:Work
         rdf:about="">
        <dc:format>image/svg+xml</dc:format>
        <dc:type
           rdf:resource="http://purl.org/dc/dcmitype/StillImage" />
        <dc:title></dc:title>
      </cc:Work>
    </rdf:RDF>
  </metadata>
  <g
     inkscape:label="Layer 1"
     inkscape:groupmode="layer"
     id="layer1"
     transform="translate(0,-852.36221)">
    <a
       id="a4148"
       transform="translate(90,97.142857)">
      <path
         style="fill:#fffaf0;fill-opacity:1"
         d="m 0.84122929,949.09202 c -0.85365738,-0.26631 -7.37248919,-2.12305 -14.48629529,-4.12607 -7.113805,-2.00303 -14.563893,-4.11722 -16.55576,-4.69819 -9.708776,-2.31072 -19.228451,-5.07253 -28.985686,-7.75657 l -3.458226,-9.18287 c -3.526911,-9.36524 -10.345626,-27.00339 -15.650518,-40.4836 -1.623714,-4.126 -4.130985,-10.52843 -5.571717,-14.22761 -1.440732,-3.69917 -3.410051,-8.67272 -4.376267,-11.05232 L -90,853.23825 l 5.065945,-5.22787 c 2.786269,-2.87533 5.647984,-5.82242 6.359363,-6.5491 1.301161,-1.32914 2.459569,-2.5457 20.441409,-21.46754 5.403529,-5.68599 12.282649,-12.90326 15.286938,-16.03839 3.004289,-3.13512 7.408573,-7.79556 9.787285,-10.35653 2.378717,-2.56097 4.966361,-5.33225 5.750322,-6.15838 l 1.425376,-1.50207 0.779475,1.86555 c 0.428714,1.02605 3.803524,10.43256 7.499587,20.90335 9.669512,27.39335 20.585525,58.13872 21.1935834,59.69255 0.5816641,1.4864 1.6276292,1.95132 10.9621846,4.87257 3.27235,1.02408 8.74351,2.7668 12.15814,3.87271 3.414623,1.10591 12.145202,3.9039 19.401281,6.21776 27.714229,8.83769 39.08315,12.57766 39.695089,13.05829 0.725103,0.56951 1.101358,0.17219 -9.181865,9.69622 C 40.74285,938.34661 45.10658,934.71294 22.053298,955.21935 -18.590593,943.60749 8.689701,951.51663 0.84122929,949.09202 Z M 74.117304,884.67242 c -6.649268,-2.09647 -12.3136,-4.0358 -12.587418,-4.30962 -0.273812,-0.27381 -3.050102,-7.79953 -6.16952,-16.72382 -3.119429,-8.92429 -5.871064,-16.42536 -6.114745,-16.66904 -0.245842,-0.24584 -4.439051,3.46836 -9.420073,8.34396 -13.690213,13.40049 -14.955851,14.50526 -16.190232,14.13224 -0.585562,-0.17695 -4.022165,-1.32457 -7.636903,-2.55029 L 9.4261687,864.66728 7.9091869,860.69247 C 5.0756383,853.268 4.0924515,850.32674 4.2778243,849.82905 c 0.1017376,-0.27314 5.1323034,-5.54976 11.1790387,-11.7258 6.046732,-6.17605 10.994055,-11.44562 10.994055,-11.71016 0,-0.61276 -0.497307,-0.81499 -11.382083,-4.62864 -4.979665,-1.74471 -12.1910973,-4.28384 -16.02541553,-5.64252 l -6.97148037,-2.47033 -0.8891117,-2.26588 c -1.8611944,-4.74318 -8.5822254,-23.48415 -8.4686624,-23.61407 0.06544,-0.0749 5.334872,1.62597 11.7098546,3.77962 6.37498212,2.15366 17.8768974,6.02563 25.5598044,8.60439 7.682911,2.57876 14.344905,4.88535 14.804431,5.12577 0.638616,0.33411 0.829729,1.20364 0.81102,3.68987 l -0.02448,3.25275 6.915377,0.14502 c 4.018721,0.0843 7.200547,0.3817 7.596198,0.71006 0.478471,0.39709 0.680826,2.07853 0.680826,5.65716 0,4.50493 -0.115394,5.15388 -1.000723,5.6277 -0.550397,0.29456 -3.646838,0.53557 -6.880986,0.53557 -3.883717,0 -6.091065,0.21079 -6.501104,0.62084 -0.422582,0.42257 -0.620843,2.88904 -0.620843,7.72355 0,5.7672 0.152869,7.25559 0.813006,7.91573 0.658763,0.65876 2.137513,0.81301 7.794522,0.81301 3.839839,0 7.43185,-0.24101 7.982246,-0.53557 0.895977,-0.47952 1.000723,-1.12935 1.000723,-6.20841 -1.1e-5,-7.5321 0.189305,-7.74232 6.972526,-7.74232 5.582157,0 5.722276,0.0961 7.165636,4.91499 0.42615,1.42277 1.973839,5.96266 3.439314,10.08867 1.465469,4.12601 4.022856,11.34329 5.683087,16.0384 1.660219,4.69511 4.672269,13.10503 6.693453,18.68872 3.666764,10.12977 4.019442,11.3415 3.286838,11.2928 -0.213413,-0.0142 -5.828334,-1.74108 -12.477596,-3.83755 z M 53.698945,808.51625 c -0.189703,-0.1897 -0.344911,-2.82258 -0.344911,-5.85084 0,-7.62063 0.150323,-7.47361 -7.848039,-7.67561 -5.156134,-0.13022 -6.503593,-0.32281 -7.026278,-1.00427 -0.433259,-0.56487 -0.646712,-2.85966 -0.646712,-6.95269 0,-8.14986 0.02731,-8.179 7.661632,-8.179 7.729608,0 7.557395,0.17612 7.771639,-7.94757 0.109187,-4.14029 0.389472,-6.65296 0.776051,-6.95704 0.33282,-0.26181 3.520501,-0.62487 7.083738,-0.8068 8.970335,-0.458 8.744767,-0.6583 8.513454,7.56005 -0.09815,3.48732 -0.193902,6.47781 -0.212772,6.64556 -0.101432,0.90143 -3.266882,1.50766 -7.948518,1.52226 -3.331006,0.0104 -5.581706,0.24899 -6.099963,0.6467 -0.627431,0.4815 -0.90234,2.05814 -1.164656,6.67959 -0.438888,7.73209 -0.511125,7.66091 7.773902,7.66091 5.265558,0 5.868281,0.0969 6.36415,1.02347 0.695152,1.29889 0.606124,12.46706 -0.106276,13.33348 -0.568782,0.69174 -13.880321,0.96791 -14.546441,0.3018 z M 15.500632,787.29902 c -1.134502,-1.28633 -1.647013,-13.13094 -0.630936,-14.5816 0.575878,-0.82219 1.598821,-1.00102 6.997542,-1.22337 8.314263,-0.34242 8.205255,-0.22306 8.205255,-8.98475 0,-7.50616 -0.947842,-6.72247 8.657148,-7.15782 8.061007,-0.36538 7.829595,-0.62541 7.71684,8.67107 -0.101917,8.4026 0.119061,8.18138 -8.05943,8.06815 -7.487191,-0.10365 -7.277127,-0.335 -7.28774,8.02611 -0.004,3.43137 -0.228236,6.58808 -0.497492,7.01492 -0.385834,0.6116 -1.949501,0.81149 -7.379378,0.94334 -6.14452,0.1492 -6.979798,0.0653 -7.721809,-0.77605 z"
         id="path4151"
         inkscape:connector-curvature="0"
         sodipodi:nodetypes="csccsssscsssssscsssssssccccsssssscscsssscscsssscsssssssssssssssscccssssssscsscssssssssssssssccss" />
    </a>
  </g>
</svg>
