<?xml version="1.0" encoding="UTF-8" standalone="no"?>
<!-- Created with Inkscape (http://www.inkscape.org/) -->

<svg
   xmlns:dc="http://purl.org/dc/elements/1.1/"
   xmlns:cc="http://creativecommons.org/ns#"
   xmlns:rdf="http://www.w3.org/1999/02/22-rdf-syntax-ns#"
   xmlns:svg="http://www.w3.org/2000/svg"
   xmlns="http://www.w3.org/2000/svg"
   xmlns:sodipodi="http://sodipodi.sourceforge.net/DTD/sodipodi-0.dtd"
   xmlns:inkscape="http://www.inkscape.org/namespaces/inkscape"
   width="56.444443mm"
   height="56.444443mm"
   viewBox="0 0 199.99999 199.99999"
   id="svg2"
   version="1.1"
   inkscape:version="0.91 r"
   sodipodi:docname="v_instagram.svg">
  <defs
     id="defs4" />
  <sodipodi:namedview
     id="base"
     pagecolor="#ffffff"
     bordercolor="#666666"
     borderopacity="1.0"
     inkscape:pageopacity="0.0"
     inkscape:pageshadow="2"
     inkscape:zoom="1.979899"
     inkscape:cx="146.72243"
     inkscape:cy="152.50265"
     inkscape:document-units="px"
     inkscape:current-layer="layer1"
     showgrid="false"
     inkscape:window-width="1366"
     inkscape:window-height="712"
     inkscape:window-x="0"
     inkscape:window-y="30"
     inkscape:window-maximized="1"
     fit-margin-top="0"
     fit-margin-left="0"
     fit-margin-right="0"
     fit-margin-bottom="0" />
  <metadata
     id="metadata7">
    <rdf:RDF>
      <cc:Work
         rdf:about="">
        <dc:format>image/svg+xml</dc:format>
        <dc:type
           rdf:resource="http://purl.org/dc/dcmitype/StillImage" />
        <dc:title />
      </cc:Work>
    </rdf:RDF>
  </metadata>
  <g
     inkscape:label="Layer 1"
     inkscape:groupmode="layer"
     id="layer1"
     transform="translate(0,-852.3622)">
    <g
       id="g4140">
      <g
         transform="matrix(6.25,0,0,6.25,0,852.3622)"
         id="g4161">
        <path
           id="path4163"
           d="M 16,0 C 7.163,0 0,7.163 0,16 0,24.836 7.163,32 16,32 24.837,32 32,24.836 32,16 32,7.163 24.837,0 16,0 Z"
           inkscape:connector-curvature="0"
           style="fill:#d84f23;fill-opacity:1" />
      </g>
      <path
         id="path4165"
         d="m 130.00433,912.36221 -60.00371,0 C 64.35391,912.36221 60,916.71613 60,922.36283 l 0,59.99876 c 0,5.6467 4.35391,10.00062 10.00062,10.00062 l 59.99876,0 c 5.64671,0 10.00061,-4.35392 10.00061,-10.00062 l 0,-59.99876 c 0.005,-5.65166 -4.3539,-10.00062 -9.99566,-10.00062 z m -29.94242,24.2858 c 8.87128,0 16.0634,6.96923 16.0634,15.56312 0,8.5939 -7.19212,15.56313 -16.0634,15.56313 -8.86632,0 -16.05844,-6.97419 -16.05844,-15.56313 0,-8.59884 7.19212,-15.56312 16.05844,-15.56312 z m 29.94242,43.21218 c 0,1.75345 -0.74794,2.5014 -2.50139,2.5014 l -55.00093,0 c -1.7485,0 -2.50139,-0.74795 -2.50139,-2.5014 l 0,-34.99968 6.23119,1.35719 c -0.66869,2.17448 -1.03027,4.47279 -1.03027,6.86026 0,13.29453 11.13491,24.08766 24.85542,24.08766 13.73042,0 24.86038,-10.78818 24.86038,-24.08766 0,-2.38747 -0.36157,-4.68578 -1.03028,-6.86026 l 6.11232,-1.35719 0,34.99968 z m 0,-45.0003 c 0,1.38195 -1.11944,2.50139 -2.50139,2.50139 l -10.00062,0 c -1.38196,0 -2.5014,-1.11944 -2.5014,-2.50139 l 0,-10.00062 c 0,-1.38196 1.11944,-2.50139 2.5014,-2.50139 l 10.00062,0 c 1.38195,0 2.50139,1.11943 2.50139,2.50139 l 0,10.00062 z"
         inkscape:connector-curvature="0"
         style="fill:#fffaf0;fill-opacity:1" />
    </g>
  </g>
</svg>
